<?xml version="1.0" encoding="UTF-8" standalone="no"?>
<!-- Created with Inkscape (http://www.inkscape.org/) -->

<svg
   xmlns:dc="http://purl.org/dc/elements/1.1/"
   xmlns:cc="http://creativecommons.org/ns#"
   xmlns:rdf="http://www.w3.org/1999/02/22-rdf-syntax-ns#"
   xmlns:svg="http://www.w3.org/2000/svg"
   xmlns="http://www.w3.org/2000/svg"
   xmlns:sodipodi="http://sodipodi.sourceforge.net/DTD/sodipodi-0.dtd"
   xmlns:inkscape="http://www.inkscape.org/namespaces/inkscape"
   width="178"
   height="52"
   id="svg2"
   version="1.1"
   inkscape:version="0.48.4 r9939"
   sodipodi:docname="walabock.svg">
  <defs
     id="defs4" />
  <sodipodi:namedview
     id="base"
     pagecolor="#ffffff"
     bordercolor="#666666"
     borderopacity="1.0"
     inkscape:pageopacity="0.0"
     inkscape:pageshadow="2"
     inkscape:zoom="3.959798"
     inkscape:cx="17.357375"
     inkscape:cy="-23.688287"
     inkscape:document-units="px"
     inkscape:current-layer="layer1"
     showgrid="false"
     units="px"
     inkscape:window-width="1920"
     inkscape:window-height="1021"
     inkscape:window-x="0"
     inkscape:window-y="27"
     inkscape:window-maximized="1"
     showguides="true"
     inkscape:guide-bbox="true" />
  <metadata
     id="metadata7">
    <rdf:RDF>
      <cc:Work
         rdf:about="">
        <dc:format>image/svg+xml</dc:format>
        <dc:type
           rdf:resource="http://purl.org/dc/dcmitype/StillImage" />
        <dc:title></dc:title>
      </cc:Work>
    </rdf:RDF>
  </metadata>
  <g
     inkscape:label="Calque 1"
     inkscape:groupmode="layer"
     id="layer1"
     transform="translate(0,-1000.3608)">
    <g
       transform="matrix(0.63589272,0,0,0.63589272,-86.857835,478.97539)"
       style="font-size:40px;font-style:normal;font-variant:normal;font-weight:800;font-stretch:normal;text-align:start;line-height:125%;letter-spacing:0px;word-spacing:0px;writing-mode:lr-tb;text-anchor:start;fill:#333333;fill-opacity:1;stroke:none;font-family:Kanit;-inkscape-font-specification:Kanit Ultra-Bold"
       id="flowRoot2985">
      <path
         d="m 180.8,848.62305 8.4,0 2.44,11.76 2.16,-7.64 0,-4.12 7,0 3.4,11.8 2.64,-11.8 8.4,0 -5.96,25.76 -7.64,0 -3.48,-11.72 -3.76,11.72 -7.6,0 -6,-25.76"
         style="line-height:125%;fill:#333333;font-family:Kanit;-inkscape-font-specification:Kanit Ultra-Bold"
         id="path3901" />
      <path
         d="m 220.52687,874.78305 c -1.94667,0 -3.54667,-0.50667 -4.8,-1.52 -1.25333,-1.04 -1.88,-2.6 -1.88,-4.68 0,-2.07999 0.66667,-3.66666 2,-4.76 1.36,-1.09332 3.4,-1.63999 6.12,-1.64 l 4.6,0 0,-0.28 c -1e-5,-1.09332 -1.26667,-1.63999 -3.8,-1.64 -1.04,10e-6 -2.13334,0.0933 -3.28,0.28 -1.14667,0.16001 -2.24,0.40001 -3.28,0.72 l 0,-4.84 c 0.98667,-0.42665 2.24,-0.75998 3.76,-1 1.52,-0.26665 3.02666,-0.39998 4.52,-0.4 3.19999,2e-5 5.70665,0.65335 7.52,1.96 1.81332,1.30668 2.71998,3.28001 2.72,5.92 l 0,11.48 -7.52,0 -0.36,-1.44 c -1.44001,1.22666 -3.54667,1.84 -6.32,1.84 m 3.12,-4.84 c 1.19999,0 2.17333,-0.4 2.92,-1.2 l 0,-2.04 -2.72,0 c -0.72001,1e-5 -1.25334,0.13334 -1.6,0.4 -0.34667,0.24 -0.52,0.65334 -0.52,1.24 0,1.06667 0.64,1.6 1.92,1.6"
         style="line-height:125%;fill:#333333;font-family:Kanit;-inkscape-font-specification:Kanit Ultra-Bold"
         id="path3903" />
      <path
         d="m 244.77187,874.78305 c -2.53333,0 -4.33333,-0.50667 -5.4,-1.52 -1.06666,-1.04 -1.6,-2.69333 -1.6,-4.96 l 0,-20.88 8.6,0 0,19.8 c -1e-5,0.53334 0.10666,0.92 0.32,1.16 0.21333,0.21334 0.58666,0.32 1.12,0.32 0.77333,0 1.42666,-0.10666 1.96,-0.32 l 0,5.48 c -0.80001,0.34666 -1.56001,0.58666 -2.28,0.72 -0.69334,0.13333 -1.6,0.2 -2.72,0.2"
         style="line-height:125%;fill:#333333;font-family:Kanit;-inkscape-font-specification:Kanit Ultra-Bold"
         id="path3905" />
      <path
         d="m 256.77688,874.78305 c -1.94668,0 -3.54668,-0.50667 -4.80001,-1.52 -1.25333,-1.04 -1.88,-2.6 -1.88,-4.68 0,-2.07999 0.66667,-3.66666 2,-4.76 1.36,-1.09332 3.4,-1.63999 6.12001,-1.64 l 4.59999,0 0,-0.28 c -10e-6,-1.09332 -1.26667,-1.63999 -3.79999,-1.64 -1.04001,10e-6 -2.13335,0.0933 -3.28001,0.28 -1.14667,0.16001 -2.24,0.40001 -3.28,0.72 l 0,-4.84 c 0.98667,-0.42665 2.24,-0.75998 3.76001,-1 1.51999,-0.26665 3.02665,-0.39998 4.51999,-0.4 3.19999,2e-5 5.70665,0.65335 7.52,1.96 1.81332,1.30668 2.71998,3.28001 2.72,5.92 l 0,11.48 -7.51999,0 -0.36001,-1.44 c -1.44001,1.22666 -3.54667,1.84 -6.31999,1.84 m 3.12,-4.84 c 1.19998,0 2.17332,-0.4 2.91999,-1.2 l 0,-2.04 -2.72,0 c -0.72001,1e-5 -1.25334,0.13334 -1.6,0.4 -0.34667,0.24 -0.52,0.65334 -0.52,1.24 0,1.06667 0.64,1.6 1.92001,1.6"
         style="line-height:125%;fill:#333333;font-family:Kanit;-inkscape-font-specification:Kanit Ultra-Bold"
         id="path3907" />
      <path
         d="m 287.42187,874.78305 c -1.14668,0 -2.17334,-0.14667 -3.07999,-0.44 -0.88002,-0.29334 -1.70668,-0.73333 -2.48001,-1.32 l -0.39999,1.36 -7.44,0 0,-26.96 8.59999,0 0,8.52 c 0.55999,-0.26665 1.25333,-0.47998 2.08,-0.64 0.82666,-0.18665 1.62666,-0.27998 2.4,-0.28 2.98665,2e-5 5.26665,0.77335 6.84,2.32 1.57332,1.54668 2.35998,4.01334 2.36,7.4 -2e-5,3.30667 -0.78668,5.81333 -2.36,7.52 -1.57335,1.68 -3.74668,2.52 -6.52,2.52 m -2.48,-6.16 c 0.87999,0 1.53332,-0.29333 1.96001,-0.88 0.42665,-0.58666 0.63998,-1.54666 0.63999,-2.88 -1e-5,-1.33332 -0.21334,-2.26666 -0.63999,-2.8 -0.42669,-0.55999 -1.08002,-0.83999 -1.96001,-0.84 -0.93334,1e-5 -1.70667,0.26668 -2.32,0.8 l 0,5.72 c 0.66666,0.58667 1.43999,0.88 2.32,0.88"
         style="line-height:125%;fill:#333333;font-family:Kanit;-inkscape-font-specification:Kanit Ultra-Bold"
         id="path3909" />
      <path
         d="m 308.37375,874.78305 c -3.86668,0 -6.74667,-0.82667 -8.64,-2.48 -1.89334,-1.65333 -2.84,-4.12 -2.84,-7.4 0,-6.58665 3.82666,-9.87998 11.48,-9.88 7.70665,2e-5 11.55998,3.29335 11.56,9.88 -2e-5,6.58667 -3.85335,9.88 -11.56,9.88 m 0,-6.2 c 0.98665,0 1.69332,-0.28 2.12,-0.84 0.45332,-0.56 0.67998,-1.50666 0.68,-2.84 -2e-5,-1.30666 -0.22668,-2.23999 -0.68,-2.8 -0.45335,-0.58666 -1.16001,-0.87999 -2.12,-0.88 -0.96001,1e-5 -1.65334,0.29334 -2.08,0.88 -0.42668,0.56001 -0.64001,1.49334 -0.64,2.8 -10e-6,1.33334 0.21332,2.28 0.64,2.84 0.42666,0.56 1.11999,0.84 2.08,0.84"
         style="line-height:125%;fill:#333333;font-family:Kanit;-inkscape-font-specification:Kanit Ultra-Bold"
         id="path3911" />
      <path
         d="m 331.61687,874.78305 c -3.6,0 -6.42667,-0.82667 -8.48,-2.48 -2.02666,-1.65333 -3.04,-4.12 -3.04,-7.4 0,-3.25332 1.02667,-5.70665 3.08,-7.36 2.05333,-1.67998 4.85333,-2.51998 8.4,-2.52 1.49332,2e-5 2.82666,0.10668 4,0.32 1.19999,0.21335 2.31999,0.56002 3.36,1.04 l 0,6 c -1.62668,-0.77332 -3.44001,-1.15999 -5.44,-1.16 -1.57334,1e-5 -2.74667,0.28001 -3.52,0.84 -0.74667,0.56001 -1.12,1.50668 -1.12,2.84 0,1.30667 0.37333,2.25334 1.12,2.84 0.77333,0.56 1.95999,0.84 3.56,0.84 1.86666,0 3.69332,-0.46666 5.48001,-1.4 l 0,6.28 c -1.97336,0.88 -4.44002,1.32 -7.40001,1.32"
         style="line-height:125%;fill:#333333;font-family:Kanit;-inkscape-font-specification:Kanit Ultra-Bold"
         id="path3913" />
      <path
         d="m 341.44375,847.42305 8.6,0 0,12.56 4.36,-4.56 9.72,0 -7.52,8.12 7.92,10.84 -9.12,0 -4.16,-6.36 -1.2,1.28 0,5.08 -8.6,0 0,-26.96"
         style="line-height:125%;fill:#333333;font-family:Kanit;-inkscape-font-specification:Kanit Ultra-Bold"
         id="path3915" />
    </g>
    <path
       inkscape:connector-curvature="0"
       d="m 46.651332,1009.8352 -9.930335,-8.1795 v 4.6726 c -0.0093,0 -0.01728,0 -0.02658,0 -2.913341,0.1012 -5.488217,0.5297 -7.678705,1.32 -2.462099,0.887 -4.492492,2.0888 -6.099688,3.5979 -1.273183,1.1982 -2.276551,2.5628 -3.031103,4.0813 -0.19844,0.3996 -0.391033,0.8004 -0.553852,1.221 -0.783927,2.0192 -1.330668,4.2133 -1.171504,6.4671 0.03854,0.5578 0.345643,2.2186 0.704644,2.2186 0,0 0.44679,-2.3283 2.252425,-4.996 0.552989,-0.8138 1.198752,-1.5835 1.941674,-2.2948 l 0.08294,0.068 v -0.1459 c 0.461543,-0.4339 0.953857,-0.8499 1.509503,-1.2272 1.504188,-1.0195 3.344648,-1.828 5.519519,-2.4246 1.781977,-0.4884 3.812371,-0.7725 6.059481,-0.8759 h 0.493709 l -0.0066,4.6731 9.930269,-8.1773 z"
       id="path6"
       style="fill:#ff6600;fill-opacity:1" />
    <flowRoot
       xml:space="preserve"
       id="flowRoot2985-8"
       style="font-size:40px;font-style:normal;font-variant:normal;font-weight:800;font-stretch:normal;text-align:start;line-height:125%;letter-spacing:0px;word-spacing:0px;writing-mode:lr-tb;text-anchor:start;fill:#333333;fill-opacity:1;stroke:none;font-family:Kanit;-inkscape-font-specification:Kanit Ultra-Bold"
       transform="matrix(0.63589272,0,0,0.63589272,-333.02085,511.17071)"><flowRegion
         id="flowRegion2987-5"><rect
           id="rect2989-6"
           width="797.14288"
           height="308.57144"
           x="180"
           y="837.59259"
           style="font-size:40px;font-style:normal;font-variant:normal;font-weight:800;font-stretch:normal;text-align:start;line-height:125%;writing-mode:lr-tb;text-anchor:start;fill:#333333;fill-opacity:1;font-family:Kanit;-inkscape-font-specification:Kanit Ultra-Bold" /></flowRegion><flowPara
         id="flowPara2991-7"
         style="font-size:40px;font-style:normal;font-variant:normal;font-weight:800;font-stretch:normal;text-align:start;line-height:125%;writing-mode:lr-tb;text-anchor:start;fill:#333333;fill-opacity:1;font-family:Kanit;-inkscape-font-specification:Kanit Ultra-Bold">W</flowPara></flowRoot>    <path
       inkscape:connector-curvature="0"
       d="m -199.95705,1041.8866 -8.0431,-6.625 v 3.7846 c -0.01,0 -0.014,0 -0.021,0 -2.3596,0.082 -4.4452,0.4291 -6.2193,1.0691 -1.9942,0.7185 -3.6387,1.6919 -4.9404,2.9141 -1.0312,0.9706 -1.8439,2.0758 -2.4551,3.3057 -0.1607,0.3236 -0.3167,0.6483 -0.4486,0.9889 -0.6349,1.6355 -1.0778,3.4126 -0.9488,5.238 0.031,0.4519 0.2799,1.797 0.5707,1.797 0,0 0.3619,-1.8858 1.8243,-4.0465 0.4479,-0.6591 0.9709,-1.2826 1.5727,-1.8587 l 0.067,0.055 v -0.1181 c 0.3738,-0.3515 0.7726,-0.6884 1.2226,-0.994 1.2183,-0.8257 2.7089,-1.4805 4.4705,-1.9638 1.4433,-0.3955 3.0878,-0.6256 4.9079,-0.7094 h 0.3998 l 0,3.7849 8.043,-6.6232 z"
       id="path6-3"
       style="fill:#333333;fill-opacity:1" />
    <path
       inkscape:connector-curvature="0"
       d="m -215.23745,1074.1828 8.043,6.625 0,-3.7846 c 0.01,0 0.014,0 0.021,0 2.3597,-0.082 4.4452,-0.4291 6.2194,-1.0691 1.9941,-0.7184 3.6386,-1.6918 4.9404,-2.9141 1.0312,-0.9705 1.8439,-2.0758 2.455,-3.3057 0.1607,-0.3236 0.3168,-0.6483 0.4486,-0.9889 0.635,-1.6355 1.0778,-3.4125 0.9489,-5.238 -0.031,-0.4519 -0.28,-1.797 -0.5707,-1.797 0,0 -0.3619,1.8858 -1.8244,4.0465 -0.4479,0.6592 -0.9709,1.2826 -1.5726,1.8587 l -0.067,-0.055 0,0.1181 c -0.3739,0.3515 -0.7726,0.6885 -1.2227,0.994 -1.2183,0.8257 -2.7089,1.4806 -4.4704,1.9638 -1.4434,0.3956 -3.0879,0.6256 -4.9079,0.7094 l -0.3999,0 0,-3.7849 -8.043,6.6232 z"
       id="path6-0-4"
       style="fill:#333333;fill-opacity:1" />
    <path
       inkscape:connector-curvature="0"
       d="m 129.4345,1043.869 9.93034,8.1795 v -4.6726 c 0.009,0 0.0173,0 0.0266,0 2.91334,-0.1012 5.48821,-0.5297 7.6787,-1.32 2.4621,-0.887 4.49249,-2.0888 6.09969,-3.5979 1.27318,-1.1982 2.27655,-2.5628 3.0311,-4.0813 0.19844,-0.3996 0.39103,-0.8004 0.55385,-1.221 0.78393,-2.0192 1.33067,-4.2133 1.17151,-6.4671 -0.0385,-0.5578 -0.34564,-2.2186 -0.70465,-2.2186 0,0 -0.44679,2.3283 -2.25242,4.996 -0.55299,0.8138 -1.19875,1.5835 -1.94168,2.2948 l -0.0829,-0.068 v 0.1459 c -0.46154,0.4339 -0.95385,0.8499 -1.5095,1.2272 -1.50419,1.0195 -3.34465,1.828 -5.51952,2.4246 -1.78197,0.4884 -3.81237,0.7725 -6.05948,0.8759 h -0.49371 l 0.007,-4.6731 -9.93027,8.1773 z"
       id="path6-9"
       style="fill:#0000ff;fill-opacity:1" />
  </g>
</svg>
